HIERARCHY
ROOT Hips
{
	OFFSET 0.000000 0.000000 0.000000
	CHANNELS 6 Xposition Yposition Zposition Xrotation Yrotation Zrotation
	JOINT LeftUpLeg_virtual
	{
		OFFSET 0.000000 0.000000 0.000000
		CHANNELS 3 Xrotation Yrotation Zrotation
		JOINT LeftUpLeg
		{
			OFFSET 11.394100 -6.187798 -0.413800
			CHANNELS 3 Xrotation Yrotation Zrotation
			JOINT LeftLeg
			{
				OFFSET 0.430247 -32.302673 3.732800
				CHANNELS 3 Xrotation Yrotation Zrotation
				JOINT LeftFoot
				{
					OFFSET -0.430247 -48.264931 -6.423300
					CHANNELS 3 Xrotation Yrotation Zrotation
					JOINT LeftToeBase
					{
						OFFSET 4.230900 -16.068199 23.438400
						CHANNELS 3 Xrotation Yrotation Zrotation
						JOINT LeftToe_End
						{
							OFFSET 4.510700 0.695400 19.974600
							CHANNELS 3 Xrotation Yrotation Zrotation
							End Site
							{
								OFFSET 0 0 0
							}
						}
					}
				}
			}
		}
	}
	JOINT RightUpLeg_virtual
	{
		OFFSET 0.000000 0.000000 0.000000
		CHANNELS 3 Xrotation Yrotation Zrotation
		JOINT RightUpLeg
		{
			OFFSET -11.333700 -6.187798 -0.413800
			CHANNELS 3 Xrotation Yrotation Zrotation
			JOINT RightLeg
			{
				OFFSET -0.430392 -32.302628 3.733000
				CHANNELS 3 Xrotation Yrotation Zrotation
				JOINT RightFoot
				{
					OFFSET 0.430392 -48.264973 -6.423500
					CHANNELS 3 Xrotation Yrotation Zrotation
					JOINT RightToeBase
					{
						OFFSET -4.230900 -16.068199 23.438400
						CHANNELS 3 Xrotation Yrotation Zrotation
						JOINT RightToe_End
						{
							OFFSET -4.510700 0.695400 19.974600
							CHANNELS 3 Xrotation Yrotation Zrotation
							End Site
							{
								OFFSET 0 0 0
							}
						}
					}
				}
			}
		}
	}
	JOINT Spine_virtual
	{
		OFFSET 0.000000 0.000000 0.000000
		CHANNELS 3 Xrotation Yrotation Zrotation
		JOINT Spine
		{
			OFFSET -0.002400 12.777504 0.315300
			CHANNELS 3 Xrotation Yrotation Zrotation
			JOINT Spine1
			{
				OFFSET -0.002067 5.816869 0.032633
				CHANNELS 3 Xrotation Yrotation Zrotation
				JOINT Spine1_split
				{
					OFFSET -0.002067 5.816869 0.032633
					CHANNELS 3 Xrotation Yrotation Zrotation
					JOINT Spine2
					{
						OFFSET -0.002067 5.816869 0.032633
						CHANNELS 3 Xrotation Yrotation Zrotation
						JOINT Neck_virtual
						{
							OFFSET 0.000000 0.000000 0.000000
							CHANNELS 3 Xrotation Yrotation Zrotation
							JOINT Neck
							{
								OFFSET -0.003700 21.199493 -0.826900
								CHANNELS 3 Xrotation Yrotation Zrotation
								JOINT Head
								{
									OFFSET 0.000000 20.442200 4.834800
									CHANNELS 3 Xrotation Yrotation Zrotation
									JOINT HeadTop_End
									{
										OFFSET 0.000000 34.668396 4.968400
										CHANNELS 3 Xrotation Yrotation Zrotation
										End Site
										{
											OFFSET 0 0 0
										}
									}
								}
							}
						}
						JOINT LeftShoulder_virtual
						{
							OFFSET 0.000000 0.000000 0.000000
							CHANNELS 3 Xrotation Yrotation Zrotation
							JOINT LeftShoulder
							{
								OFFSET 3.288150 8.794197 -1.372250
								CHANNELS 3 Xrotation Yrotation Zrotation
								JOINT LeftShoulder_split
								{
									OFFSET 3.288150 8.794197 -1.372250
									CHANNELS 3 Xrotation Yrotation Zrotation
									JOINT LeftArm
									{
										OFFSET 11.953299 -2.279007 -0.146200
										CHANNELS 3 Xrotation Yrotation Zrotation
										JOINT LeftForeArm
										{
											OFFSET 18.448900 0.000000 0.000000
											CHANNELS 3 Xrotation Yrotation Zrotation
											JOINT LeftHand
											{
												OFFSET 29.527798 0.000000 0.000000
												CHANNELS 3 Xrotation Yrotation Zrotation
												End Site
												{
													OFFSET 0 0 0
												}
											}
										}
									}
								}
							}
						}
						JOINT RightShoulder_virtual
						{
							OFFSET 0.000000 0.000000 0.000000
							CHANNELS 3 Xrotation Yrotation Zrotation
							JOINT RightShoulder
							{
								OFFSET -3.249400 8.794197 -1.372250
								CHANNELS 3 Xrotation Yrotation Zrotation
								JOINT RightShoulder_split
								{
									OFFSET -3.249400 8.794197 -1.372250
									CHANNELS 3 Xrotation Yrotation Zrotation
									JOINT RightArm
									{
										OFFSET -11.953299 -2.279007 -0.146200
										CHANNELS 3 Xrotation Yrotation Zrotation
										JOINT RightForeArm
										{
											OFFSET -18.448900 0.000000 0.000000
											CHANNELS 3 Xrotation Yrotation Zrotation
											JOINT RightHand
											{
												OFFSET -29.527802 0.000000 0.000000
												CHANNELS 3 Xrotation Yrotation Zrotation
												End Site
												{
													OFFSET 0 0 0
												}
											}
										}
									}
								}
							}
						}
					}
				}
			}
		}
	}
}
MOTION
Frames: 10
Frame Time: 0.03333333
1.251531 82.368668 -1.101299 0.000000 0.000000 0.000000 -9.623044 -52.868478 -2.790280 -31.710670 8.248020 23.384403 53.070143 -1.374666 3.675224 -13.047884 -10.083876 -12.142429 -5.281968 0.628079 0.863920 0.000000 0.000000 0.000000 -9.856431 -50.473438 -2.004529 -24.485835 -8.138375 -31.975633 59.497573 1.711187 -3.319325 -24.318718 -13.022135 22.897883 0.916041 0.712180 -0.474960 0.000000 0.000000 0.000000 -9.374733 -51.033589 -3.138752 11.568872 7.363122 -2.211370 0.632477 1.508464 -0.648774 0.271342 -0.224381 1.296588 0.000000 0.000000 0.000000 0.491717 2.086685 -0.565868 3.158881 14.431963 5.776437 6.654664 19.288681 -2.219835 0.000000 0.000000 0.000000 2.469199 1.312249 -0.103444 1.258337 4.082966 -7.095179 -4.998219 -4.640358 -4.174107 -51.243378 7.075394 -46.674709 179.042167 -72.691122 -178.680481 0.000000 0.000000 0.000000 2.448762 1.684475 -0.518566 3.790510 10.927144 -5.849510 0.823222 -4.456525 -1.443204 -49.916300 21.450778 87.077549 177.335466 72.033033 -176.904126 0.000000 0.000000 0.000000 
1.562990 81.657898 -0.490959 0.000000 0.000000 0.000000 -10.346723 -53.836053 -3.153124 -33.213198 7.170239 23.440157 55.686611 -1.175896 3.222206 -11.990588 -9.502222 -13.363277 -7.648550 0.565378 0.745929 0.000000 0.000000 0.000000 -10.891551 -51.837000 -2.447829 -25.051423 -8.532281 -32.836288 61.297874 2.522326 -3.389511 -25.754053 -13.238582 23.028618 1.756344 0.589762 -0.232134 0.000000 0.000000 0.000000 -9.347143 -51.463734 -2.957313 12.082753 7.552305 -2.248586 0.826441 1.363689 -0.633967 0.663168 -0.222575 1.442497 0.000000 0.000000 0.000000 0.557352 1.962308 -0.599651 3.208874 14.375907 5.733000 6.756358 19.249790 -2.034412 0.000000 0.000000 0.000000 2.439969 1.245664 -0.056660 1.155470 3.771677 -7.475546 -2.650882 -6.558179 -3.378349 -53.222361 7.166509 -47.393078 175.713488 -72.772169 177.608578 0.000000 0.000000 0.000000 2.449630 1.592765 -0.523927 3.843978 11.486885 -5.788142 1.326421 -4.725133 -0.423266 -51.151259 23.616214 87.339821 177.862798 72.564585 -177.236456 0.000000 0.000000 0.000000 
1.643569 80.048630 0.503605 0.000000 0.000000 0.000000 -10.614426 -54.792925 -3.099227 -36.027008 5.530468 24.435681 61.154447 -2.594829 2.034195 -11.945207 -10.493398 -14.787602 -11.898515 -0.405557 4.000432 0.000000 0.000000 0.000000 -11.321885 -52.836527 -2.448163 -25.676843 -7.555137 -33.952457 63.461740 3.863790 -3.965219 -26.408138 -13.646022 23.959334 1.036944 0.375142 0.808240 0.000000 0.000000 0.000000 -9.505278 -52.475288 -2.748934 13.172785 7.966319 -2.154600 0.765809 1.215541 -0.798698 0.813757 -0.235117 1.183891 0.000000 0.000000 0.000000 0.222211 1.759455 -0.774540 2.776039 14.494850 5.771780 7.431627 19.142372 -1.623543 0.000000 0.000000 0.000000 2.188168 1.148896 -0.157407 1.005528 3.445072 -8.204475 -0.823218 -7.268768 -2.161720 -53.615049 6.803484 -47.870808 170.987680 -73.209383 172.494064 0.000000 0.000000 0.000000 2.048952 1.434238 -0.641404 3.800110 12.112383 -5.561541 1.233981 -4.137445 0.100931 -52.129230 24.566993 86.689417 178.558794 73.552244 -178.257009 0.000000 0.000000 0.000000 
1.640557 77.780792 1.833916 0.000000 0.000000 0.000000 -10.526612 -55.828095 -2.766562 -40.215754 3.107247 26.360336 68.796985 -5.826883 0.828528 -12.285428 -12.735631 -16.675717 -14.570877 -1.920488 8.304666 0.000000 0.000000 0.000000 -10.991616 -53.354327 -1.913815 -26.605194 -5.411194 -35.327326 65.421901 5.511858 -4.922703 -26.433102 -14.012257 25.263693 -0.524630 0.081466 2.170378 0.000000 0.000000 0.000000 -9.819416 -54.119605 -2.630031 14.671991 8.498960 -1.925018 0.497195 1.164964 -1.108182 0.771849 0.318134 0.793291 0.000000 0.000000 0.000000 -0.451971 1.623953 -1.030045 1.770906 14.741205 5.862248 8.356676 19.238153 -1.223136 0.000000 0.000000 0.000000 1.687661 1.090136 -0.369219 0.867806 3.390537 -8.978543 0.488860 -6.529853 -0.768444 -51.866056 7.319781 -47.341202 167.466048 -72.921586 168.689594 0.000000 0.000000 0.000000 1.272182 1.301195 -0.872644 3.642706 12.695618 -5.349629 0.996366 -2.865366 0.213311 -52.802191 24.071072 85.395082 -179.888960 74.612672 179.401571 0.000000 0.000000 0.000000 
1.868352 75.093460 3.314007 0.000000 0.000000 0.000000 -10.038972 -57.105207 -2.123660 -45.059233 -0.078181 28.797881 76.368277 -9.526323 -0.169668 -13.046898 -15.323388 -17.757228 -14.986977 -3.339252 11.623490 0.000000 0.000000 0.000000 -10.379141 -53.542362 -1.146828 -28.372710 -2.403979 -37.117761 66.979663 7.206723 -5.967375 -25.915339 -14.002821 26.465386 -1.023101 -0.098321 3.177514 0.000000 0.000000 0.000000 -10.127759 -56.066714 -2.531707 16.340553 8.945430 -1.553981 0.051980 1.240332 -1.500520 0.721430 0.846057 0.376796 0.000000 0.000000 0.000000 -1.276508 1.631873 -1.303998 0.412055 15.200598 5.898568 9.136660 19.859953 -1.105350 0.000000 0.000000 0.000000 0.984412 1.127615 -0.643566 0.753748 3.704774 -9.589939 1.175141 -4.871430 1.032574 -48.135512 9.798594 -45.502850 168.261164 -70.622339 169.348257 0.000000 0.000000 0.000000 0.253821 1.224784 -1.196121 3.347963 13.045155 -5.403403 0.720893 -1.799099 0.190165 -53.411219 23.191207 84.272609 -177.361052 75.587176 175.794002 0.000000 0.000000 0.000000 
2.468747 72.344795 5.151680 0.000000 0.000000 0.000000 -9.424691 -58.483768 -1.328798 -49.730413 -4.244516 31.519103 82.368222 -13.266276 -0.210653 -12.328602 -17.427578 -19.282799 -15.221754 -4.239856 13.052663 0.000000 0.000000 0.000000 -9.552606 -54.097178 -0.230563 -31.512427 0.893246 -39.657089 68.042686 8.773597 -6.768451 -24.376341 -13.379403 27.584409 -0.285521 -0.001894 3.204054 0.000000 0.000000 0.000000 -10.234130 -57.765430 -2.348745 17.804691 9.111860 -1.092075 -0.466273 1.422721 -1.845067 0.445690 0.872671 0.264657 0.000000 0.000000 0.000000 -2.015707 1.773332 -1.503801 -0.990886 15.888893 5.690066 9.581021 21.333456 -1.552688 0.000000 0.000000 0.000000 0.212757 1.266374 -0.886472 0.678136 4.422867 -9.853601 1.360372 -3.117544 2.894445 -44.376081 13.859176 -42.910233 172.474311 -66.035266 173.471656 0.000000 0.000000 0.000000 -0.765621 1.237441 -1.518182 3.003921 12.977729 -5.905487 0.626846 -1.324353 0.293959 -54.165927 23.637188 84.498832 -173.973674 76.628247 171.409007 0.000000 0.000000 0.000000 
3.384313 69.939217 7.712402 0.000000 0.000000 0.000000 -8.717180 -60.172894 -0.569786 -53.095329 -9.047884 34.094638 85.200907 -16.357419 0.670014 -8.863510 -18.344341 -22.160760 -17.032731 -4.417952 11.833833 0.000000 0.000000 0.000000 -8.971158 -55.395956 0.429442 -35.517711 4.076344 -43.005955 67.960867 10.400080 -7.253818 -21.377823 -11.860326 29.322125 0.226830 0.275243 1.879004 0.000000 0.000000 0.000000 -10.141823 -59.302790 -2.204641 18.806794 8.639871 -0.705772 -0.953481 1.599263 -2.003626 0.234764 0.741854 0.673209 0.000000 0.000000 0.000000 -2.414752 1.903884 -1.529518 -2.142247 16.920489 5.257257 9.608067 23.650908 -2.644775 0.000000 0.000000 0.000000 -0.461016 1.404562 -1.034382 0.595529 5.480819 -9.813348 1.106014 -2.157529 4.323969 -42.124618 18.331131 -40.370683 176.747414 -60.813566 177.753815 0.000000 0.000000 0.000000 -1.545967 1.253068 -1.677746 2.600732 12.418655 -6.741540 0.953099 -1.695486 1.040296 -55.335204 26.898128 86.075212 -170.518733 77.461776 167.405956 0.000000 0.000000 0.000000 
4.501303 68.043800 10.638996 0.000000 0.000000 0.000000 -7.982089 -62.007606 0.005743 -53.963836 -12.726049 36.731671 82.887119 -17.182316 0.830748 -4.713725 -16.975406 -24.416821 -19.214782 -3.528327 7.646855 0.000000 0.000000 0.000000 -8.799110 -57.337970 0.575829 -38.832617 6.782525 -46.935776 66.134884 12.137583 -7.424020 -17.007861 -9.212915 31.561416 -0.459327 0.730709 -0.350453 0.000000 0.000000 0.000000 -9.965803 -60.573184 -2.271778 19.114062 7.369055 -0.577845 -1.309968 1.590713 -1.852775 0.151669 0.148456 1.102072 0.000000 0.000000 0.000000 -2.396535 1.833635 -1.323474 -2.707787 18.308382 4.634085 9.181366 26.698689 -4.274906 0.000000 0.000000 0.000000 -0.863465 1.432183 -0.998487 0.516246 6.756783 -9.567209 0.707590 -2.097441 4.970273 -42.234567 21.293852 -38.368448 179.731633 -58.850016 -179.306673 0.000000 0.000000 0.000000 -1.866595 1.173237 -1.576666 2.118821 11.353549 -7.596708 1.052186 -2.347611 2.135787 -57.132357 33.464010 88.782214 -168.548496 77.722710 165.428630 0.000000 0.000000 0.000000 
5.589836 66.664261 13.951820 0.000000 0.000000 0.000000 -7.369832 -63.666235 0.079810 -52.618613 -14.672792 39.483568 75.367313 -15.555336 0.219719 -1.227940 -13.293388 -25.697666 -18.283365 -1.693460 1.504167 0.000000 0.000000 0.000000 -8.882908 -59.632353 0.143751 -39.796360 8.468314 -50.981386 61.899184 13.787973 -7.165684 -11.795859 -5.796941 33.177518 -2.516963 1.334446 -2.255337 0.000000 0.000000 0.000000 -9.598226 -61.470856 -2.602558 18.538443 5.211597 -0.824622 -1.383123 1.345160 -1.328938 0.871702 -0.244779 1.497392 0.000000 0.000000 0.000000 -2.062572 1.483840 -0.852026 -2.734641 19.803806 3.895340 8.383927 30.072940 -6.171697 0.000000 0.000000 0.000000 -0.864268 1.212280 -0.715113 0.390516 7.792142 -9.038074 0.925936 -2.606463 5.165169 -44.955796 21.575106 -36.702339 -178.063428 -63.976729 -177.184669 0.000000 0.000000 0.000000 -1.591283 0.942497 -1.148203 1.617012 9.888933 -8.380702 0.339401 -2.767047 2.973027 -58.372415 42.451203 91.237899 -168.770163 77.315781 166.064274 0.000000 0.000000 0.000000 
6.507311 65.762428 18.003069 0.000000 0.000000 0.000000 -6.982231 -64.624941 -0.577784 -50.748849 -15.418334 42.318264 64.002732 -12.843016 -0.211508 1.695794 -9.168160 -27.332930 -12.544897 -0.098563 -4.566273 0.000000 0.000000 0.000000 -9.176786 -61.271715 -1.009723 -37.369509 8.677360 -54.413955 55.358997 15.101586 -6.455178 -6.516136 -2.293403 33.186158 -5.469103 1.867364 -2.503496 0.000000 0.000000 0.000000 -8.999622 -61.766125 -3.191939 17.271959 2.265399 -1.639172 -1.233697 0.847757 -0.458021 1.787259 -0.638207 1.828748 0.000000 0.000000 0.000000 -1.598562 0.850203 -0.122954 -2.663089 21.140709 3.320820 7.304343 33.271235 -7.862146 0.000000 0.000000 0.000000 -0.486784 0.692559 -0.133510 0.201444 8.156188 -8.108912 0.869585 -2.433069 4.791651 -49.580528 19.515577 -35.104471 -173.437655 -78.563855 -172.554088 0.000000 0.000000 0.000000 -0.886479 0.498202 -0.387161 1.134382 8.056804 -8.877209 -1.012164 -2.913745 3.010379 -55.968517 51.880478 90.220542 -170.515796 76.424018 168.459786 0.000000 0.000000 0.000000 
